<svg width="141" height="140" viewBox="0 0 141 140" fill="none" xmlns="http://www.w3.org/2000/svg">
<g filter="url(#filter0_d_1918_161)">
<path d="M135.043 56.3801C131.437 32.833 116.659 3.90111 87.4595 0.871645C87.4595 0.871645 65.2877 -1.82068 43.4346 2.25817C30.4646 4.67984 19.0884 11.8831 11.8945 22.2441C4.70049 32.6003 2.29299 45.231 5.20959 57.2728C7.10324 65.0934 8.38312 73.1846 8.03579 81.2236C7.42202 95.2076 7.7741 108.266 21.377 116.604C33.5191 124.049 48.8015 130.621 63.3798 131.77C73.2857 132.554 84.4002 131.286 93.9493 128.712C142.613 115.588 138.65 79.9273 135.043 56.3801Z" fill="#F4F7FA"/>
</g>
<path d="M90.5015 76.6664C89.0494 76.4857 86.6021 76.1844 84.5409 74.3379C80.7973 70.9815 80.7584 64.6977 82.2282 60.4411C83.4925 56.7835 86.5277 54.0226 92.5946 48.4972C98.3109 43.2943 100.422 42.4437 100.539 39.8529C100.701 36.1634 96.5719 34.1644 97.4077 29.8866C97.5069 29.3727 97.8504 27.6112 99.2529 26.7252C101.647 25.2118 105.454 27.3277 107.363 29.0466C109.205 30.7053 111.44 33.9412 110.717 36.9963C110.193 39.2114 108.564 39.4524 108.55 41.4052C108.536 43.3723 110.183 43.7231 111.443 46.7357C111.946 47.9407 112.959 50.3543 112.23 52.7148C111.284 55.7663 108.284 55.9577 108.157 58.3784C108.065 60.1292 109.598 60.6006 109.906 62.5534C110.314 65.123 108.146 67.4409 106.319 69.3441C104.172 71.5911 98.364 77.6375 90.5015 76.6664Z" fill="url(#paint0_linear_1918_161)"/>
<path opacity="0.16" d="M100.432 27.6432C99.2353 28.9014 104.155 32.396 104.187 38.3361C104.222 44.7262 98.5801 50.0496 95.9699 52.5093C91.5215 56.7056 89.2159 56.4823 86.6624 60.707C85.653 62.3799 83.5492 65.8603 84.6826 69.8581C84.7888 70.2303 86.0249 74.3522 89.6692 75.6777C93.8024 77.1769 97.893 73.934 101.413 71.1376C103.542 69.447 107.795 66.0765 106.91 63.5105C106.368 61.9404 104.034 61.0366 102.26 61.0012C99.7275 60.9516 97.9886 62.6634 97.6805 62.2877C97.4042 61.9475 98.5517 60.2321 100.308 58.7754C103.822 55.8586 106.184 56.9573 108.709 54.3983C109.017 54.0865 111.408 51.5949 110.863 48.6532C110.547 46.9555 109.248 45.0665 107.81 45.0027C106.188 44.9283 105.093 47.2213 104.665 46.9662C104.257 46.7181 105.008 44.4746 106.078 42.3623C107.647 39.2611 108.589 39.0343 109.028 37.1842C109.694 34.363 108.217 31.8608 108.001 31.5028C105.975 28.1536 101.456 26.5693 100.432 27.6432Z" fill="white"/>
<path d="M92.2227 91.3678C90.8273 90.9283 88.4756 90.1841 86.7863 87.9937C83.7121 84.0101 84.8136 77.8254 87.0342 73.9056C88.9396 70.5386 92.4246 68.3731 99.3946 64.0456C105.961 59.9662 108.192 59.5126 108.773 56.9891C109.602 53.3917 105.904 50.6733 107.501 46.6223C107.693 46.1368 108.351 44.4674 109.888 43.8508C112.52 42.7946 115.877 45.5697 117.443 47.6076C118.952 49.5746 120.563 53.1614 119.299 56.0357C118.381 58.1197 116.735 58.0594 116.366 59.9769C115.998 61.9084 117.553 62.5535 118.247 65.7433C118.523 67.0192 119.079 69.5781 117.935 71.7649C116.455 74.5931 113.469 74.2387 112.902 76.5956C112.492 78.3004 113.919 79.0411 113.866 81.0188C113.798 83.6202 111.248 85.5057 109.106 87.0439C106.584 88.8621 99.7735 93.7531 92.2227 91.3678Z" fill="url(#paint1_linear_1918_161)"/>
<path opacity="0.16" d="M110.877 44.9671C109.474 45.9879 113.675 50.3153 112.63 56.1632C111.504 62.4542 104.99 66.6611 101.98 68.6069C96.8446 71.9243 94.6169 71.2899 91.3409 74.9758C90.0446 76.436 87.3459 79.4769 87.7355 83.6166C87.7709 83.9993 88.2419 88.2807 91.5852 90.2442C95.3784 92.47 99.986 90.0245 103.96 87.9157C106.361 86.6398 111.153 84.095 110.749 81.4121C110.501 79.7711 108.369 78.4562 106.63 78.0983C104.147 77.5879 102.125 78.9559 101.895 78.5306C101.686 78.1479 103.124 76.6699 105.118 75.5535C109.102 73.3242 111.224 74.8341 114.174 72.7749C114.532 72.5268 117.337 70.5066 117.333 67.5153C117.33 65.7893 116.395 63.6946 114.996 63.3721C113.412 63.0071 111.921 65.0627 111.55 64.7296C111.192 64.4141 112.339 62.3408 113.774 60.4588C115.881 57.6943 116.848 57.6412 117.613 55.901C118.782 53.2464 117.783 50.5173 117.631 50.1275C116.232 46.4734 112.077 44.0953 110.877 44.9671Z" fill="white"/>
<path d="M54.7945 103.701L28.9828 101.738V29.0569L54.7945 27.1431V103.701Z" fill="url(#paint2_linear_1918_161)"/>
<path d="M31.4833 55.5571V86.4448H30.9803V94.3519H54.7945V55.5571H31.4833Z" fill="#D8DEE8"/>
<path d="M30.9803 87.228C36.7816 85.8387 45.5189 80.7669 47.2472 74.9863C49.5953 67.1359 54.7945 63.4642 54.7945 63.4642V30.6343L30.9803 32.2363V87.228Z" fill="white"/>
<path d="M54.7945 80.8379C54.7945 80.8379 48.8941 88.0078 41.8887 91.9986C38.3293 94.0259 34.1891 93.9089 30.9803 93.3028V98.5589L54.7945 100.207V80.8379Z" fill="white"/>
<path d="M102.497 31.4209H72.3965V99.5261H102.497V31.4209Z" fill="url(#paint3_linear_1918_161)"/>
<path d="M100.06 96.4147V34.4834H72.3966L64.0984 57.868L72.3966 96.4147H100.06Z" fill="#D8DEE8"/>
<path d="M62.5189 21.8447C62.5189 21.8447 62.5436 38.5662 66.2907 46.2394C70.0378 53.9161 71.4474 61.3873 68.6282 65.7608C65.8091 70.1344 54.7945 63.4607 54.7945 63.4607C54.7945 63.4607 49.5953 67.1325 47.2472 74.9828C44.8991 82.8332 29.6275 89.3758 26.3373 87.1642C23.0471 84.9527 24.4566 25.6973 24.4566 25.6973L62.5189 21.8447Z" fill="white"/>
<path d="M25.6325 91.6686C25.6325 91.6686 34.8869 95.9855 41.8887 91.9982C48.8906 88.0075 54.7945 80.8376 54.7945 80.8376C54.7945 80.8376 61.9168 85.204 65.7418 84.9595C69.5668 84.7149 72.3966 72.4307 72.3966 72.4307C72.3966 72.4307 78.729 69.2799 81.5482 62.8898C84.3674 56.4996 93.0232 49.5388 97.7584 48.0821C102.497 46.6254 105.277 49.3474 105.277 49.3474L104.101 105.048L30.9804 108.879L25.6325 91.6686Z" fill="white"/>
<path d="M67.3072 23.9253C67.3072 23.9253 64.8139 35.3801 67.3072 38.4175C69.8005 41.4549 71.7024 50.1452 72.3965 52.5021C73.0907 54.859 78.4953 60.0123 81.3144 55.3198C84.1336 50.6273 88.3623 47.2036 90.4767 45.6229C92.5911 44.0421 105.982 42.4189 106.687 41.2316C107.392 40.0443 107.863 26.5728 107.863 26.5728L67.3072 23.9253Z" fill="white"/>
<path d="M72.3965 99.5262L54.7945 103.701V27.1431L72.3965 31.4209V34.4831L69.1028 41.0292L68.097 95.1172L72.3965 96.4144V99.5262Z" fill="url(#paint4_linear_1918_161)"/>
<path d="M72.3965 86.0367V35.2803L66.1986 33.1538L63.1245 32.4769L62.5932 32.4131V63.3823H54.7945V86.0367H72.3965Z" fill="#97A6B7"/>
<path d="M54.7945 63.464C54.7945 63.464 65.8091 70.1413 68.6282 65.7642C71.4474 61.3871 70.0378 53.916 66.2907 46.2428C64.573 42.7234 63.638 37.2972 63.128 32.4594L54.7945 30.6377V63.464Z" fill="#D8DEE8"/>
<path d="M72.3965 72.4307C72.3965 72.4307 69.5667 84.7148 65.7418 84.9594C61.9168 85.2039 54.7945 80.8375 54.7945 80.8375V100.21L72.4001 96.4178V72.4307H72.3965Z" fill="#D8DEE8"/>
<path d="M67.3072 38.4173C69.8005 41.4547 71.7024 50.1451 72.3966 52.502V34.4833L66.1986 33.1294C66.1845 35.3481 66.4536 37.3789 67.3072 38.4173Z" fill="#D8DEE8"/>
<path opacity="0.53" d="M86.464 34.4834H85.993V99.5229H86.464V34.4834Z" fill="url(#paint5_linear_1918_161)"/>
<path opacity="0.53" d="M43.1212 31.4355H42.6501V99.5266H43.1212V31.4355Z" fill="url(#paint6_linear_1918_161)"/>
<path opacity="0.53" d="M100.06 56.2519H72.3717L72.3434 56.2448L54.7768 52.0662L30.9981 54.0758L30.9591 53.608L54.8122 51.5913L54.8476 51.5984L72.4249 55.7805H100.06V56.2519Z" fill="url(#paint7_linear_1918_161)"/>
<path d="M36.2008 68.1816C36.0343 68.1816 35.8679 68.1037 35.7616 67.9619C35.581 67.7209 35.6341 67.3771 35.8749 67.1963C35.8749 67.1963 36.0874 67.0404 36.4522 66.7639C36.6931 66.5832 37.0366 66.6293 37.2172 66.8703C37.3979 67.1113 37.3518 67.4551 37.111 67.6358C36.7391 67.9194 36.5266 68.0753 36.5266 68.0753C36.4274 68.1462 36.3106 68.1816 36.2008 68.1816Z" fill="url(#paint8_linear_1918_161)"/>
<path d="M82.9649 70.3118C82.6426 70.3118 82.2707 70.2658 81.828 70.1701C81.534 70.1063 81.3463 69.8157 81.4101 69.5215C81.4738 69.2273 81.7642 69.0395 82.0582 69.1033C82.5859 69.2167 83.0038 69.2486 83.2553 69.1954C83.5457 69.1281 83.8361 69.3053 83.9069 69.5959C83.9813 69.8901 83.8007 70.1843 83.5103 70.2587C83.5067 70.2587 83.4961 70.2622 83.4926 70.2622C83.3403 70.2941 83.1596 70.3118 82.9649 70.3118ZM84.7499 69.805C84.5444 69.805 84.3496 69.6916 84.2576 69.4931C84.1265 69.2202 84.2434 68.8942 84.5161 68.7666C84.9092 68.5787 85.2882 68.3448 85.6423 68.0684C85.8796 67.8841 86.2232 67.9266 86.4074 68.1641C86.5915 68.4015 86.549 68.7453 86.3117 68.9296C85.8938 69.2557 85.4476 69.5321 84.9836 69.7554C84.9092 69.7873 84.8278 69.805 84.7499 69.805ZM80.553 69.7873C80.4963 69.7873 80.4361 69.7767 80.3794 69.759C79.9544 69.6172 79.4869 69.44 78.9911 69.2415C78.7113 69.1281 78.5767 68.8127 78.6865 68.5291C78.7999 68.2491 79.1151 68.1144 79.3984 68.2243C79.8765 68.4157 80.3263 68.5823 80.7301 68.7205C81.0169 68.8162 81.1692 69.1281 81.0736 69.4116C80.9922 69.642 80.7797 69.7873 80.553 69.7873ZM77.8542 68.7134C77.7799 68.7134 77.7055 68.6992 77.6347 68.6673C77.2132 68.4795 76.7634 68.2739 76.303 68.0577C76.0303 67.9301 75.9134 67.6041 76.0409 67.3312C76.1684 67.0583 76.4942 66.9413 76.767 67.0689C77.2203 67.2816 77.6595 67.4836 78.0738 67.6679C78.3501 67.7884 78.474 68.1109 78.3536 68.3874C78.2651 68.5929 78.0632 68.7134 77.8542 68.7134ZM87.0271 68.0471C86.8996 68.0471 86.7721 68.001 86.6659 67.9124C86.4392 67.714 86.4144 67.3666 86.6163 67.1398C86.9067 66.8066 87.1794 66.4416 87.4238 66.0446C87.5832 65.7895 87.9196 65.7115 88.1782 65.871C88.4332 66.0305 88.5111 66.3672 88.3517 66.6259C88.0755 67.0689 87.7673 67.4836 87.438 67.8593C87.3317 67.9833 87.1794 68.0471 87.0271 68.0471ZM75.2263 67.48C75.1449 67.48 75.0634 67.4623 74.9855 67.4233C74.564 67.2142 74.1249 66.9945 73.6822 66.7677C73.413 66.6294 73.3068 66.2998 73.4449 66.0305C73.583 65.7611 73.9124 65.6548 74.1815 65.793C74.6207 66.0198 75.0563 66.236 75.4707 66.4416C75.7399 66.5763 75.8532 66.9023 75.7186 67.1752C75.623 67.3666 75.4282 67.48 75.2263 67.48ZM37.9327 66.8669C37.7697 66.8669 37.6068 66.7925 37.5006 66.6542C37.3164 66.4132 37.3625 66.073 37.5997 65.8887C37.9433 65.6229 38.3293 65.3252 38.7437 65.0026C38.981 64.8183 39.3245 64.8573 39.5087 65.0948C39.6929 65.3323 39.6539 65.676 39.4166 65.8603C38.9987 66.1864 38.6127 66.4877 38.2656 66.7535C38.1664 66.8279 38.0495 66.8669 37.9327 66.8669ZM72.6409 66.1581C72.5559 66.1581 72.4674 66.1368 72.3859 66.0943C71.9574 65.8674 71.5288 65.6406 71.1003 65.4067C70.8347 65.2614 70.7355 64.9318 70.8807 64.6659C71.0224 64.4001 71.3553 64.3009 71.6209 64.4462C72.0459 64.6766 72.4709 64.9034 72.8959 65.1267C73.1615 65.2685 73.2643 65.5981 73.1226 65.8639C73.027 66.0517 72.8393 66.1581 72.6409 66.1581ZM40.217 65.0771C40.0577 65.0771 39.8983 65.0062 39.7885 64.8715C39.6008 64.634 39.6397 64.2903 39.877 64.1024C40.2418 63.8118 40.6172 63.5105 41.0033 63.1986C41.237 63.0073 41.5806 63.0462 41.7718 63.2802C41.9631 63.5141 41.9241 63.8579 41.6904 64.0493C41.3008 64.3647 40.9218 64.6695 40.557 64.9601C40.4579 65.0381 40.3374 65.0771 40.217 65.0771ZM70.0909 64.7758C70.0024 64.7758 69.9103 64.7545 69.8288 64.7085C69.4003 64.471 68.9753 64.2336 68.5574 63.9996C68.2953 63.8508 68.2032 63.5176 68.3484 63.2554C68.4972 62.9931 68.8301 62.9009 69.0922 63.0462C69.5101 63.2802 69.9316 63.5176 70.3566 63.7515C70.6222 63.8969 70.7178 64.23 70.569 64.4958C70.4699 64.673 70.2822 64.7758 70.0909 64.7758ZM67.5586 63.3511C67.4666 63.3511 67.3745 63.3262 67.2859 63.2802C66.8574 63.0321 66.4359 62.7911 66.0251 62.5501C65.763 62.3977 65.678 62.0645 65.8268 61.8022C65.9791 61.54 66.312 61.4549 66.5741 61.6038C66.9814 61.8412 67.3993 62.0822 67.8278 62.3303C68.0899 62.4792 68.1784 62.8159 68.0297 63.0746C67.9341 63.2518 67.7499 63.3511 67.5586 63.3511ZM42.4695 63.2518C42.3137 63.2518 42.1579 63.1845 42.0481 63.0533C41.8568 62.8194 41.8887 62.4756 42.1224 62.2842C42.5014 61.9688 42.8733 61.6569 43.2274 61.3557C43.4577 61.1607 43.8012 61.1891 43.996 61.4195C44.1908 61.6498 44.1624 61.9936 43.9322 62.1886C43.5745 62.4934 43.1991 62.8088 42.8166 63.1242C42.7174 63.2093 42.5935 63.2518 42.4695 63.2518ZM65.0511 61.8873C64.9555 61.8873 64.8599 61.8625 64.7714 61.8093C64.3357 61.5506 63.9178 61.299 63.5212 61.0615C63.2626 60.9056 63.1812 60.5689 63.337 60.3101C63.4928 60.0514 63.8293 59.9699 64.0878 60.1258C64.4809 60.3633 64.8953 60.6114 65.3309 60.8701C65.5895 61.0225 65.6745 61.3592 65.5222 61.6179C65.4195 61.7916 65.2389 61.8873 65.0511 61.8873ZM44.6831 61.3734C44.5308 61.3734 44.3785 61.3096 44.2722 61.1855C44.0739 60.9587 44.0987 60.6114 44.3254 60.4129C44.7008 60.0833 45.0656 59.7608 45.402 59.456C45.6251 59.254 45.9722 59.2717 46.1741 59.495C46.376 59.7182 46.3583 60.0656 46.1351 60.2676C45.7916 60.5795 45.4268 60.9056 45.0443 61.2387C44.9381 61.3273 44.807 61.3734 44.6831 61.3734ZM62.5649 60.3846C62.4657 60.3846 62.3701 60.3597 62.278 60.303C61.8247 60.0231 61.4068 59.7643 61.0384 59.5304C60.7834 59.3674 60.7091 59.0307 60.8684 58.7755C61.0314 58.5203 61.3678 58.4459 61.6228 58.6054C61.9876 58.8357 62.3984 59.0945 62.8482 59.3709C63.1068 59.5304 63.1847 59.8671 63.0289 60.1223C62.9297 60.2924 62.7491 60.3846 62.5649 60.3846ZM46.8293 59.4205C46.6841 59.4205 46.5424 59.3638 46.4326 59.2504C46.2237 59.0307 46.2343 58.6869 46.4504 58.4778C46.8187 58.1269 47.1622 57.7867 47.4704 57.4748C47.6829 57.2586 48.0264 57.255 48.2424 57.4641C48.4585 57.6768 48.462 58.0206 48.2531 58.2368C47.9378 58.5593 47.5837 58.9066 47.2047 59.2681C47.0985 59.3709 46.9639 59.4205 46.8293 59.4205ZM60.1176 58.8216C60.0114 58.8216 59.9051 58.7897 59.813 58.7259C59.5793 58.5699 59.342 58.4069 59.1012 58.2403C58.9418 58.1304 58.7789 58.017 58.6124 57.9072C58.3645 57.737 58.3007 57.3968 58.4707 57.1487C58.6407 56.9006 58.9807 56.8368 59.2287 57.0069C59.3951 57.1204 59.558 57.2302 59.7174 57.3436C59.9582 57.5067 60.192 57.6697 60.4222 57.8256C60.6737 57.9958 60.7374 58.336 60.5674 58.5841C60.4647 58.7365 60.2947 58.8216 60.1176 58.8216ZM48.8445 57.3401C48.717 57.3401 48.5895 57.2976 48.4868 57.2054C48.2601 57.0069 48.2353 56.6631 48.4301 56.4328C48.586 56.252 48.7312 56.0748 48.8587 55.9118C49.0322 55.6885 49.2164 55.4829 49.4076 55.2986C49.6237 55.0895 49.9708 55.0966 50.1797 55.3128C50.3887 55.529 50.3816 55.8763 50.1656 56.0854C50.0133 56.2343 49.861 56.4009 49.7193 56.5852C49.5812 56.7624 49.4253 56.9538 49.2553 57.1487C49.1491 57.2763 48.9968 57.3401 48.8445 57.3401ZM57.7164 57.1983C57.6137 57.1983 57.5145 57.17 57.4224 57.1097C56.9797 56.8262 56.583 56.5852 56.2112 56.3725C55.9491 56.2237 55.857 55.8905 56.0058 55.6282C56.1545 55.366 56.4874 55.2738 56.7495 55.4227C57.1426 55.646 57.557 55.8976 58.0139 56.1918C58.2689 56.3548 58.3397 56.695 58.1768 56.9467C58.0705 57.1097 57.897 57.1983 57.7164 57.1983ZM55.1876 55.7877C55.1133 55.7877 55.0389 55.7736 54.968 55.7417C54.5183 55.5432 54.0862 55.3908 53.6895 55.288C53.3955 55.2136 53.222 54.9159 53.2964 54.6217C53.3708 54.3275 53.6683 54.1539 53.9622 54.2283C54.4191 54.3452 54.9043 54.5154 55.4107 54.7387C55.687 54.8592 55.811 55.1817 55.6905 55.4581C55.5949 55.6672 55.3966 55.7877 55.1876 55.7877ZM50.9837 55.4298C50.7712 55.4298 50.5728 55.3057 50.4808 55.1002C50.3603 54.8237 50.4878 54.5012 50.7641 54.3807C51.2635 54.1645 51.8053 54.0475 52.3756 54.0334C52.6766 54.0263 52.928 54.2637 52.9351 54.565C52.9422 54.8662 52.7049 55.1179 52.4039 55.125C51.9683 55.1356 51.5751 55.2207 51.1997 55.3837C51.1289 55.4156 51.0545 55.4298 50.9837 55.4298Z" fill="url(#paint9_linear_1918_161)"/>
<path d="M88.5394 65.6546C88.465 65.6546 88.3907 65.6404 88.3198 65.6085C88.0436 65.4845 87.9196 65.162 88.0436 64.8891C88.21 64.5169 88.2844 64.2724 88.2844 64.2724C88.373 63.9853 88.6811 63.8223 88.9679 63.9109C89.2548 63.9995 89.4177 64.3043 89.3292 64.5949C89.3256 64.6055 89.2371 64.8962 89.0423 65.3321C88.9502 65.5341 88.7519 65.6546 88.5394 65.6546Z" fill="url(#paint10_linear_1918_161)"/>
<path d="M53.1795 35.1817C53.1795 41.8589 43.8295 54.0474 39.6008 59.2184C38.5489 60.5049 36.5798 60.5049 35.5279 59.2184C31.2956 54.0474 21.9456 41.8589 21.9456 35.1817C21.9456 26.5515 28.9369 19.5518 37.5643 19.5518C46.1883 19.5518 53.1795 26.5515 53.1795 35.1817Z" fill="url(#paint11_linear_1918_161)"/>
<path d="M37.5643 43.8967C42.3742 43.8967 46.2733 39.9947 46.2733 35.1815C46.2733 30.3682 42.3742 26.4663 37.5643 26.4663C32.7545 26.4663 28.8554 30.3682 28.8554 35.1815C28.8554 39.9947 32.7545 43.8967 37.5643 43.8967Z" fill="white"/>
<g opacity="0.3">
<path opacity="0.3" d="M37.4935 52.8034C38.4852 46.2715 42.7954 44.1839 42.0552 38.017C41.2016 30.9074 34.9116 29.0112 34.7593 22.6848C34.7345 21.6677 34.8727 20.6824 35.1348 19.7432C27.6619 20.9127 21.9456 27.3774 21.9456 35.1817C21.9456 41.8589 31.2956 54.0474 35.5243 59.2184C36.1441 59.9769 37.0791 60.2888 37.961 60.1541C37.2066 57.2939 37.1818 54.852 37.4935 52.8034Z" fill="url(#paint12_linear_1918_161)"/>
</g>
<path d="M37.5643 70.0175C39.3267 70.0175 40.7554 68.5878 40.7554 66.8242C40.7554 65.0606 39.3267 63.6309 37.5643 63.6309C35.802 63.6309 34.3733 65.0606 34.3733 66.8242C34.3733 68.5878 35.802 70.0175 37.5643 70.0175Z" fill="url(#paint13_linear_1918_161)"/>
<path d="M95.9131 49.603C95.9131 52.6403 91.6596 58.187 89.733 60.5404C89.2548 61.1252 88.3588 61.1252 87.8807 60.5404C85.954 58.187 81.7005 52.6403 81.7005 49.603C81.7005 45.676 84.8809 42.4897 88.8086 42.4897C92.7292 42.4933 95.9131 45.676 95.9131 49.603Z" fill="url(#paint14_linear_1918_161)"/>
<path d="M88.8051 53.5691C90.9938 53.5691 92.7682 51.7935 92.7682 49.6032C92.7682 47.4128 90.9938 45.6372 88.8051 45.6372C86.6163 45.6372 84.842 47.4128 84.842 49.6032C84.842 51.7935 86.6163 53.5691 88.8051 53.5691Z" fill="white"/>
<g opacity="0.3">
<path opacity="0.3" d="M88.7732 57.6232C89.223 54.6532 91.1851 53.6998 90.8486 50.8963C90.4591 47.6605 87.5974 46.7993 87.5301 43.9178C87.5195 43.4535 87.5832 43.007 87.7001 42.5781C84.3001 43.1098 81.7005 46.0514 81.7005 49.6027C81.7005 52.6401 85.954 58.1867 87.8807 60.5401C88.1641 60.8839 88.589 61.0256 88.9893 60.9654C88.6422 59.6682 88.6315 58.5553 88.7732 57.6232Z" fill="url(#paint15_linear_1918_161)"/>
</g>
<path d="M88.805 65.456C89.607 65.456 90.2571 64.8055 90.2571 64.0029C90.2571 63.2004 89.607 62.5498 88.805 62.5498C88.0031 62.5498 87.353 63.2004 87.353 64.0029C87.353 64.8055 88.0031 65.456 88.805 65.456Z" fill="url(#paint16_linear_1918_161)"/>
<path d="M76.8165 109.918L65.7701 109.464L68.8265 102.294L75.9453 102.716L77.8507 105.832L76.8165 109.918Z" fill="url(#paint17_linear_1918_161)"/>
<path d="M87.1794 98.52C87.2538 98.52 87.3246 98.5236 87.399 98.5306L88.5465 98.52L88.5394 98.9701C89.6515 99.7463 90.4236 101.44 90.4236 103.407C90.4236 105.452 89.5913 107.203 88.4048 107.933L88.3977 108.295H87.1759C85.3838 108.295 83.9317 106.108 83.9317 103.407C83.9352 100.707 85.3873 98.52 87.1794 98.52Z" fill="url(#paint18_linear_1918_161)"/>
<path d="M88.5465 108.295C90.3382 108.295 91.7907 106.107 91.7907 103.407C91.7907 100.708 90.3382 98.52 88.5465 98.52C86.7548 98.52 85.3023 100.708 85.3023 103.407C85.3023 106.107 86.7548 108.295 88.5465 108.295Z" fill="url(#paint19_linear_1918_161)"/>
<path d="M55.4816 102.23C55.5701 102.23 55.6622 102.238 55.7507 102.245L57.1568 102.23L57.1497 102.734C58.5132 103.602 59.4589 105.502 59.4589 107.706C59.4589 109.996 58.4389 111.959 56.9868 112.774L56.9797 113.182H55.4851C53.2893 113.182 51.5114 110.729 51.5114 107.706C51.5043 104.68 53.2857 102.23 55.4816 102.23Z" fill="url(#paint20_linear_1918_161)"/>
<path d="M57.1532 113.182C59.3479 113.182 61.127 110.73 61.127 107.706C61.127 104.682 59.3479 102.23 57.1532 102.23C54.9586 102.23 53.1795 104.682 53.1795 107.706C53.1795 110.73 54.9586 113.182 57.1532 113.182Z" fill="url(#paint21_linear_1918_161)"/>
<path d="M70.5938 104.772C70.6824 104.772 70.7709 104.779 70.8559 104.786L72.2407 104.772L72.2336 105.289C73.5759 106.179 74.5073 108.125 74.5073 110.386C74.5073 112.736 73.5015 114.745 72.0742 115.582L72.0671 116H70.5938C68.4334 116 66.6803 113.487 66.6803 110.386C66.6803 107.285 68.4334 104.772 70.5938 104.772Z" fill="url(#paint22_linear_1918_161)"/>
<path d="M72.2407 116C74.4021 116 76.1542 113.487 76.1542 110.386C76.1542 107.285 74.4021 104.772 72.2407 104.772C70.0793 104.772 68.3271 107.285 68.3271 110.386C68.3271 113.487 70.0793 116 72.2407 116Z" fill="url(#paint23_linear_1918_161)"/>
<path d="M72.7932 113.54C74.0079 113.54 74.9926 112.128 74.9926 110.386C74.9926 108.644 74.0079 107.231 72.7932 107.231C71.5785 107.231 70.5938 108.644 70.5938 110.386C70.5938 112.128 71.5785 113.54 72.7932 113.54Z" fill="#D8DEE8"/>
<path d="M72.4603 113.314C73.4911 113.314 74.3268 112.003 74.3268 110.386C74.3268 108.769 73.4911 107.458 72.4603 107.458C71.4295 107.458 70.5938 108.769 70.5938 110.386C70.5938 112.003 71.4295 113.314 72.4603 113.314Z" fill="url(#paint24_linear_1918_161)"/>
<path d="M109.612 98.52V104.364C109.612 105.888 108.277 107.072 106.765 106.884L92.5698 105.141V98.5236L109.612 98.52Z" fill="url(#paint25_linear_1918_161)"/>
<path d="M103.22 97.7085L99.3203 103.769C98.7642 104.634 97.8505 105.208 96.8269 105.332L83.9353 106.881L82.9471 100.356L103.22 97.7085Z" fill="url(#paint26_linear_1918_161)"/>
<path d="M102.324 100.661C102.398 100.661 102.469 100.664 102.543 100.671L103.691 100.661L103.684 101.111C104.796 101.887 105.568 103.581 105.568 105.548C105.568 107.593 104.735 109.344 103.549 110.074L103.542 110.436H102.32C100.528 110.436 99.0759 108.249 99.0759 105.548C99.0794 102.847 100.531 100.661 102.324 100.661Z" fill="url(#paint27_linear_1918_161)"/>
<path d="M103.691 110.436C105.482 110.436 106.935 108.247 106.935 105.548C106.935 102.849 105.482 100.661 103.691 100.661C101.899 100.661 100.446 102.849 100.446 105.548C100.446 108.247 101.899 110.436 103.691 110.436Z" fill="url(#paint28_linear_1918_161)"/>
<path d="M104.144 108.295C105.151 108.295 105.968 107.065 105.968 105.548C105.968 104.031 105.151 102.801 104.144 102.801C103.137 102.801 102.32 104.031 102.32 105.548C102.32 107.065 103.137 108.295 104.144 108.295Z" fill="#D8DEE8"/>
<path d="M103.868 108.096C104.723 108.096 105.415 106.955 105.415 105.548C105.415 104.14 104.723 103 103.868 103C103.013 103 102.32 104.14 102.32 105.548C102.32 106.955 103.013 108.096 103.868 108.096Z" fill="url(#paint29_linear_1918_161)"/>
<path d="M88.2419 102.295L114.726 98.6228C115.162 98.5625 115.488 98.1904 115.488 97.7509V74.4018C115.488 73.9268 115.109 73.5334 114.634 73.5193L88.2455 72.7041V102.295H88.2419Z" fill="url(#paint30_linear_1918_161)"/>
<path d="M67.4559 100.661L88.2455 102.295V72.7041L68.4901 73.7461C67.9128 73.778 67.4559 74.2565 67.4559 74.8342V100.661Z" fill="url(#paint31_linear_1918_161)"/>
<path opacity="0.3" d="M97.7973 84.0349C101.647 79.1793 109.301 82.7625 113.161 77.3151C114.032 76.0888 114.638 74.8342 115.059 73.6504C115.314 73.8063 115.484 74.0828 115.484 74.4018V97.7509C115.484 98.1904 115.159 98.5625 114.723 98.6228L90.7565 101.944C92.2688 100.289 93.7881 98.1762 94.8896 95.5322C97.3085 89.7304 95.2862 87.2034 97.7973 84.0349Z" fill="url(#paint32_linear_1918_161)"/>
<path d="M84.2257 84.9494C84.9447 88.1711 86.6163 97.464 84.7499 107.452C84.6117 108.196 84.0132 108.77 83.2694 108.887L76.8201 109.918C76.8201 109.918 76.7563 103.808 73.6574 103.408C70.5584 103.007 67.6543 105.913 67.4595 110.953C67.4595 110.953 60.7445 111.857 50.6082 109.532C50.6082 109.532 49.2518 109.241 48.671 107.707L49.1278 100.679C49.1668 100.101 49.4324 99.5657 49.868 99.1865L55.8357 94.0261C55.8357 94.0261 61.258 86.3388 63.0678 84.8537C63.0678 84.8537 64.0347 83.3049 71.8476 83.11C77.2274 82.9753 80.9319 83.3333 82.7169 83.5672C83.4607 83.6629 84.0628 84.2158 84.2257 84.9494Z" fill="url(#paint33_linear_1918_161)"/>
<path opacity="0.6" d="M49.4714 99.6434L49.7689 99.9694C49.6414 103.588 48.8551 104.868 55.4816 105.548C62.108 106.228 61.9061 100.661 61.9061 100.661L70.5974 96.8683L77.8542 85.4347C79.2957 84.2722 81.8103 83.9568 83.5173 83.8823C83.8715 84.134 84.1301 84.5061 84.2292 84.9491C84.9482 88.1708 86.6198 97.4637 84.7534 107.451C84.6153 108.196 84.0167 108.77 83.273 108.887L76.8236 109.918C76.8236 109.918 76.7599 103.808 73.6609 103.407C70.562 103.007 67.6578 105.913 67.463 110.953C67.463 110.953 60.748 111.857 50.6118 109.532C50.6118 109.532 49.2553 109.241 48.6745 107.706L49.1314 100.678C49.1526 100.306 49.273 99.9517 49.4714 99.6434Z" fill="url(#paint34_linear_1918_161)"/>
<path d="M70.6824 95.1995C70.4486 95.5858 70.0094 95.7985 69.5597 95.7453L55.8003 94.0583L55.8357 94.0264C55.8357 94.0264 60.3372 87.6468 62.5047 85.3892L75.1944 86.1512C75.6301 86.176 75.8851 86.658 75.6549 87.0337L70.6824 95.1995Z" fill="url(#paint35_linear_1918_161)"/>
<path opacity="0.3" d="M62.4905 90.9104C66.2376 89.436 69.3507 91.1833 71.9255 89.1205C72.9171 88.3266 73.5086 87.2279 73.8557 86.0654L75.1909 86.1469C75.6265 86.1718 75.8815 86.6538 75.6513 87.0295L70.6824 95.1953C70.4486 95.5816 70.0094 95.7943 69.5597 95.7411L58.1414 94.3411C59.6395 92.3918 61.1836 91.4243 62.4905 90.9104Z" fill="white"/>
<path d="M50.3285 100.576C50.3426 100.452 50.4489 100.356 50.5729 100.356C54.0012 100.384 58.3114 101.107 59.7422 101.363C60.0114 101.412 60.1885 101.674 60.1247 101.94C59.8449 103.131 59.3845 103.939 59.041 104.407C58.8108 104.726 58.4531 104.924 58.0599 104.956C56.9797 105.041 54.5891 105.187 53.4274 104.91C52.3968 104.666 51.4087 104.173 50.8774 103.882C50.5693 103.712 50.3497 103.411 50.2966 103.064C50.1691 102.224 50.2754 101.058 50.3285 100.576Z" fill="url(#paint36_linear_1918_161)"/>
<path d="M67.1053 100.909C67.2009 100.714 67.1088 100.477 66.9034 100.402C66.5988 100.289 66.1845 100.161 65.9436 100.19C65.6284 100.229 62.9545 100.923 61.7326 101.242C61.3537 101.341 61.0951 101.692 61.1199 102.082C61.1731 102.915 61.4883 104.233 62.9191 104.382C64.9059 104.584 66.1597 102.834 67.1053 100.909Z" fill="url(#paint37_linear_1918_161)"/>
<path d="M54.2526 105.832C59.4553 106.559 60.5107 104.772 60.5107 104.772C61.7432 104.957 63.4928 104.716 64.4845 104.542C64.8634 104.475 65.2282 104.655 65.4407 104.974C65.6001 105.215 65.887 105.456 66.4111 105.545C67.2647 105.694 68.7168 105.368 69.4286 105.183C68.3909 106.605 67.6684 108.451 67.5728 110.939C67.5728 110.939 60.7445 111.85 50.6118 109.525C50.6118 109.525 49.2553 109.234 48.6745 107.7L48.972 103.117C49.4997 103.936 50.888 105.361 54.2526 105.832Z" fill="url(#paint38_linear_1918_161)"/>
<path opacity="0.6" d="M62.7136 106.735C63.2909 106.679 63.7797 107.139 63.7691 107.721C63.7407 108.958 63.8682 110.251 63.978 111.127C61.0314 111.134 56.3741 110.857 50.6082 109.532C50.6082 109.532 49.2518 109.241 48.671 107.707L48.8445 105.034C52.9989 107.391 59.9936 106.998 62.7136 106.735Z" fill="url(#paint39_linear_1918_161)"/>
<path d="M82.0051 86.8169L80.1351 87.2706C79.5259 87.4194 78.9911 87.788 78.6334 88.3055L74.008 95.0572C73.6928 95.5179 74.1001 96.1275 74.6455 96.0141L82.6603 94.3164C82.9826 94.2491 83.2199 93.9727 83.234 93.6395C83.2836 92.4805 83.3367 89.7409 82.8834 87.3875C82.809 86.98 82.4088 86.7177 82.0051 86.8169Z" fill="url(#paint40_linear_1918_161)"/>
<defs>
<filter id="filter0_d_1918_161" x="0" y="0" width="141" height="140" filterUnits="userSpaceOnUse" color-interpolation-filters="sRGB">
<feFlood flood-opacity="0" result="BackgroundImageFix"/>
<feColorMatrix in="SourceAlpha" type="matrix" values="0 0 0 0 0 0 0 0 0 0 0 0 0 0 0 0 0 0 127 0" result="hardAlpha"/>
<feOffset dy="4"/>
<feGaussianBlur stdDeviation="2"/>
<feComposite in2="hardAlpha" operator="out"/>
<feColorMatrix type="matrix" values="0 0 0 0 0 0 0 0 0 0 0 0 0 0 0 0 0 0 0.25 0"/>
<feBlend mode="normal" in2="BackgroundImageFix" result="effect1_dropShadow_1918_161"/>
<feBlend mode="normal" in="SourceGraphic" in2="effect1_dropShadow_1918_161" result="shape"/>
</filter>
<linearGradient id="paint0_linear_1918_161" x1="113.6" y1="47.9856" x2="78.7429" y2="55.4228" gradientUnits="userSpaceOnUse">
<stop offset="0.00359712" stop-color="#E38DDD"/>
<stop offset="1" stop-color="#9571F6"/>
</linearGradient>
<linearGradient id="paint1_linear_1918_161" x1="120.136" y1="67.3597" x2="84.5088" y2="68.3533" gradientUnits="userSpaceOnUse">
<stop stop-color="#FF9085"/>
<stop offset="1" stop-color="#FB6FBB"/>
</linearGradient>
<linearGradient id="paint2_linear_1918_161" x1="28.9843" y1="65.4217" x2="54.7941" y2="65.4217" gradientUnits="userSpaceOnUse">
<stop stop-color="#FF9085"/>
<stop offset="1" stop-color="#FB6FBB"/>
</linearGradient>
<linearGradient id="paint3_linear_1918_161" x1="80.6083" y1="47.8401" x2="110.553" y2="124.914" gradientUnits="userSpaceOnUse">
<stop stop-color="#FF9085"/>
<stop offset="1" stop-color="#FB6FBB"/>
</linearGradient>
<linearGradient id="paint4_linear_1918_161" x1="47.5802" y1="65.3779" x2="80.2609" y2="65.5759" gradientUnits="userSpaceOnUse">
<stop stop-color="#FF9085"/>
<stop offset="1" stop-color="#FB6FBB"/>
</linearGradient>
<linearGradient id="paint5_linear_1918_161" x1="85.9936" y1="67.0045" x2="86.4635" y2="67.0045" gradientUnits="userSpaceOnUse">
<stop stop-color="#311944"/>
<stop offset="1" stop-color="#A03976"/>
</linearGradient>
<linearGradient id="paint6_linear_1918_161" x1="42.6517" y1="65.4804" x2="43.1216" y2="65.4804" gradientUnits="userSpaceOnUse">
<stop stop-color="#311944"/>
<stop offset="1" stop-color="#A03976"/>
</linearGradient>
<linearGradient id="paint7_linear_1918_161" x1="30.9594" y1="53.9209" x2="100.059" y2="53.9209" gradientUnits="userSpaceOnUse">
<stop stop-color="#311944"/>
<stop offset="1" stop-color="#A03976"/>
</linearGradient>
<linearGradient id="paint8_linear_1918_161" x1="35.6524" y1="67.4167" x2="89.3542" y2="67.4167" gradientUnits="userSpaceOnUse">
<stop stop-color="#AA80F9"/>
<stop offset="0.9964" stop-color="#6165D7"/>
</linearGradient>
<linearGradient id="paint9_linear_1918_161" x1="35.6637" y1="62.1743" x2="89.0149" y2="62.1743" gradientUnits="userSpaceOnUse">
<stop stop-color="#AA80F9"/>
<stop offset="0.9964" stop-color="#6165D7"/>
</linearGradient>
<linearGradient id="paint10_linear_1918_161" x1="35.643" y1="64.7684" x2="89.3523" y2="64.7684" gradientUnits="userSpaceOnUse">
<stop stop-color="#AA80F9"/>
<stop offset="0.9964" stop-color="#6165D7"/>
</linearGradient>
<linearGradient id="paint11_linear_1918_161" x1="35.5482" y1="29.5078" x2="51.2956" y2="70.0403" gradientUnits="userSpaceOnUse">
<stop stop-color="#AA80F9"/>
<stop offset="0.9964" stop-color="#6165D7"/>
</linearGradient>
<linearGradient id="paint12_linear_1918_161" x1="29.9166" y1="31.6958" x2="45.6641" y2="72.2284" gradientUnits="userSpaceOnUse">
<stop stop-color="#AA80F9"/>
<stop offset="0.9964" stop-color="#6165D7"/>
</linearGradient>
<linearGradient id="paint13_linear_1918_161" x1="41.6564" y1="60.6054" x2="31.4313" y2="76.1145" gradientUnits="userSpaceOnUse">
<stop stop-color="#AA80F9"/>
<stop offset="0.9964" stop-color="#6165D7"/>
</linearGradient>
<linearGradient id="paint14_linear_1918_161" x1="87.8891" y1="47.0225" x2="95.0552" y2="65.4671" gradientUnits="userSpaceOnUse">
<stop stop-color="#FF9085"/>
<stop offset="1" stop-color="#FB6FBB"/>
</linearGradient>
<linearGradient id="paint15_linear_1918_161" x1="85.3265" y1="48.0179" x2="92.4924" y2="66.4625" gradientUnits="userSpaceOnUse">
<stop stop-color="#FF9085"/>
<stop offset="1" stop-color="#FB6FBB"/>
</linearGradient>
<linearGradient id="paint16_linear_1918_161" x1="90.6687" y1="61.1736" x2="86.0157" y2="68.2311" gradientUnits="userSpaceOnUse">
<stop stop-color="#FF9085"/>
<stop offset="1" stop-color="#FB6FBB"/>
</linearGradient>
<linearGradient id="paint17_linear_1918_161" x1="77.8497" y1="106.106" x2="65.7689" y2="106.106" gradientUnits="userSpaceOnUse">
<stop stop-color="#444B8C"/>
<stop offset="0.9964" stop-color="#26264F"/>
</linearGradient>
<linearGradient id="paint18_linear_1918_161" x1="90.4246" y1="103.406" x2="83.9364" y2="103.406" gradientUnits="userSpaceOnUse">
<stop stop-color="#311944"/>
<stop offset="1" stop-color="#6B3976"/>
</linearGradient>
<linearGradient id="paint19_linear_1918_161" x1="91.7912" y1="103.406" x2="85.3031" y2="103.406" gradientUnits="userSpaceOnUse">
<stop stop-color="#311944"/>
<stop offset="1" stop-color="#6B3976"/>
</linearGradient>
<linearGradient id="paint20_linear_1918_161" x1="59.4547" y1="107.705" x2="51.506" y2="107.705" gradientUnits="userSpaceOnUse">
<stop stop-color="#311944"/>
<stop offset="1" stop-color="#6B3976"/>
</linearGradient>
<linearGradient id="paint21_linear_1918_161" x1="61.129" y1="107.705" x2="53.1803" y2="107.705" gradientUnits="userSpaceOnUse">
<stop stop-color="#311944"/>
<stop offset="1" stop-color="#6B3976"/>
</linearGradient>
<linearGradient id="paint22_linear_1918_161" x1="74.5061" y1="110.385" x2="66.681" y2="110.385" gradientUnits="userSpaceOnUse">
<stop stop-color="#311944"/>
<stop offset="1" stop-color="#6B3976"/>
</linearGradient>
<linearGradient id="paint23_linear_1918_161" x1="76.1543" y1="110.385" x2="68.3292" y2="110.385" gradientUnits="userSpaceOnUse">
<stop stop-color="#311944"/>
<stop offset="1" stop-color="#6B3976"/>
</linearGradient>
<linearGradient id="paint24_linear_1918_161" x1="69.7997" y1="110.097" x2="73.3828" y2="110.485" gradientUnits="userSpaceOnUse">
<stop offset="0.00540541" stop-color="#D8DEE8"/>
<stop offset="1" stop-color="#F4F7FA"/>
</linearGradient>
<linearGradient id="paint25_linear_1918_161" x1="109.612" y1="102.71" x2="92.569" y2="102.71" gradientUnits="userSpaceOnUse">
<stop stop-color="#444B8C"/>
<stop offset="0.9964" stop-color="#26264F"/>
</linearGradient>
<linearGradient id="paint26_linear_1918_161" x1="103.221" y1="102.294" x2="82.9498" y2="102.294" gradientUnits="userSpaceOnUse">
<stop stop-color="#444B8C"/>
<stop offset="0.9964" stop-color="#26264F"/>
</linearGradient>
<linearGradient id="paint27_linear_1918_161" x1="105.567" y1="105.547" x2="99.0786" y2="105.547" gradientUnits="userSpaceOnUse">
<stop stop-color="#311944"/>
<stop offset="1" stop-color="#6B3976"/>
</linearGradient>
<linearGradient id="paint28_linear_1918_161" x1="106.933" y1="105.547" x2="100.445" y2="105.547" gradientUnits="userSpaceOnUse">
<stop stop-color="#311944"/>
<stop offset="1" stop-color="#6B3976"/>
</linearGradient>
<linearGradient id="paint29_linear_1918_161" x1="100.633" y1="105.983" x2="105.669" y2="105.305" gradientUnits="userSpaceOnUse">
<stop offset="0.00540541" stop-color="#D8DEE8"/>
<stop offset="1" stop-color="#F4F7FA"/>
</linearGradient>
<linearGradient id="paint30_linear_1918_161" x1="115.487" y1="87.4997" x2="88.2436" y2="87.4997" gradientUnits="userSpaceOnUse">
<stop stop-color="#FFC444"/>
<stop offset="0.9964" stop-color="#F36F56"/>
</linearGradient>
<linearGradient id="paint31_linear_1918_161" x1="88.2436" y1="87.4997" x2="67.4557" y2="87.4997" gradientUnits="userSpaceOnUse">
<stop stop-color="#FFC444"/>
<stop offset="0.9964" stop-color="#F36F56"/>
</linearGradient>
<linearGradient id="paint32_linear_1918_161" x1="115.487" y1="87.7972" x2="90.7606" y2="87.7972" gradientUnits="userSpaceOnUse">
<stop stop-color="#FFC444"/>
<stop offset="0.9964" stop-color="#F36F56"/>
</linearGradient>
<linearGradient id="paint33_linear_1918_161" x1="85.6023" y1="97.1012" x2="48.6692" y2="97.1012" gradientUnits="userSpaceOnUse">
<stop offset="0.00540541" stop-color="#D8DEE8"/>
<stop offset="1" stop-color="#F4F7FA"/>
</linearGradient>
<linearGradient id="paint34_linear_1918_161" x1="67.375" y1="97.7615" x2="84.4359" y2="124.755" gradientUnits="userSpaceOnUse">
<stop offset="0.00540541" stop-color="#D8DEE8"/>
<stop offset="1" stop-color="#F4F7FA"/>
</linearGradient>
<linearGradient id="paint35_linear_1918_161" x1="75.738" y1="90.5693" x2="55.7997" y2="90.5693" gradientUnits="userSpaceOnUse">
<stop stop-color="#444B8C"/>
<stop offset="0.9964" stop-color="#26264F"/>
</linearGradient>
<linearGradient id="paint36_linear_1918_161" x1="55.1397" y1="99.2144" x2="55.3336" y2="110.585" gradientUnits="userSpaceOnUse">
<stop stop-color="#444B8C"/>
<stop offset="0.9964" stop-color="#26264F"/>
</linearGradient>
<linearGradient id="paint37_linear_1918_161" x1="65.661" y1="98.6577" x2="59.909" y2="108.797" gradientUnits="userSpaceOnUse">
<stop stop-color="#FCB148"/>
<stop offset="0.0520724" stop-color="#FDBA46"/>
<stop offset="0.1424" stop-color="#FFC244"/>
<stop offset="0.3183" stop-color="#FFC444"/>
<stop offset="0.4849" stop-color="#FDB946"/>
<stop offset="0.7754" stop-color="#F99C4D"/>
<stop offset="0.8658" stop-color="#F8924F"/>
<stop offset="1" stop-color="#F8924F"/>
</linearGradient>
<linearGradient id="paint38_linear_1918_161" x1="69.4257" y1="107.121" x2="48.6691" y2="107.121" gradientUnits="userSpaceOnUse">
<stop stop-color="#444B8C"/>
<stop offset="0.9964" stop-color="#26264F"/>
</linearGradient>
<linearGradient id="paint39_linear_1918_161" x1="63.977" y1="108.079" x2="48.6691" y2="108.079" gradientUnits="userSpaceOnUse">
<stop stop-color="#444B8C"/>
<stop offset="0.9964" stop-color="#26264F"/>
</linearGradient>
<linearGradient id="paint40_linear_1918_161" x1="83.2709" y1="91.4126" x2="73.9007" y2="91.4126" gradientUnits="userSpaceOnUse">
<stop stop-color="#444B8C"/>
<stop offset="0.9964" stop-color="#26264F"/>
</linearGradient>
</defs>
</svg>
